<?xml version="1.0" encoding="UTF-8" standalone="no"?>
<svg
   xmlns:dc="http://purl.org/dc/elements/1.1/"
   xmlns:cc="http://creativecommons.org/ns#"
   xmlns:rdf="http://www.w3.org/1999/02/22-rdf-syntax-ns#"
   xmlns:svg="http://www.w3.org/2000/svg"
   xmlns="http://www.w3.org/2000/svg"
   viewBox="0 0 255 198"
   height="198"
   width="255"
   version="1.1"
   id="svg3390">
  <metadata
     id="metadata3396">
    <rdf:RDF>
      <cc:Work
         rdf:about="">
        <dc:format>image/svg+xml</dc:format>
        <dc:type
           rdf:resource="http://purl.org/dc/dcmitype/StillImage" />
        <dc:title></dc:title>
      </cc:Work>
    </rdf:RDF>
  </metadata>
  <defs
     id="defs3394" />
  <g
     id="g3434">
    <rect
       style="fill:#0000ff;fill-rule:evenodd;stroke:#000000;stroke-width:0.73122251px;stroke-linecap:butt;stroke-linejoin:miter;stroke-opacity:1"
       id="rect3422"
       width="136.59152"
       height="201.33167"
       x="117.76637"
       y="-0.039221883" />
    <rect
       style="fill:#ff0000"
       id="rect3432"
       width="117.37441"
       height="202.11557"
       x="1.1109883e-08"
       y="0.095166825" />
    <g
       id="g3400"
       transform="matrix(1.0290427,0,0,1.0415854,0.51976626,0.18898889)">
      <path
         style="fill-opacity:1"
         d="m 228.26285,194.94355 c -1.77968,-1.59014 -3.88419,-2.64235 -4.6767,-2.33823 -0.8998,0.34528 -5.27738,-3.04442 -11.65678,-9.02622 -6.80702,-6.38278 -11.41935,-9.91119 -13.82261,-10.57423 -4.84682,-1.3372 -29.03917,-14.06048 -42.44989,-22.32532 C 145.1671,144.21486 143,143.50934 143,146.55902 143,147.35156 142.325,148 141.5,148 c -0.825,0 -1.5,0.68625 -1.5,1.525 0,0.87994 -1.21689,1.76838 -2.87686,2.10037 -1.9925,0.3985 -3.46689,1.69582 -4.79626,4.22022 -1.05567,2.00466 -2.72223,3.79945 -3.70348,3.98842 -1.0054,0.19362 -3.94772,-1.48083 -6.74134,-3.83645 -3.9565,-3.33617 -5.24156,-3.94409 -6.36546,-3.01133 -1.00056,0.83038 -1.15289,1.8402 -0.52624,3.48841 1.45246,3.82028 -0.75226,4.77068 -3.70776,1.59832 -1.76172,-1.89098 -1.90748,-1.84156 -7.78896,2.64093 -3.2965,2.51239 -5.113985,4.25832 -4.038852,3.87984 1.075132,-0.37847 3.851832,-0.94815 6.170432,-1.26595 3.62142,-0.49637 4.57926,-0.21421 6.79522,2.00175 2.58552,2.58552 3.34531,4.67047 1.702,4.67047 -0.48265,0 -1.43775,-0.675 -2.12244,-1.5 -1.60658,-1.93581 -3.41899,-1.905 -5.07154,0.0862 -0.89012,1.07252 -2.23515,1.40246 -4.15336,1.01882 -5.062305,-1.01246 -14.455007,1.91302 -20.292489,6.32036 C 79.514372,178.16642 76.460272,180 75.695721,180 c -0.764551,0 -1.878403,1.0125 -2.475226,2.25 l -1.085134,2.25 -0.06768,-2.25 c -0.05122,-1.70275 -0.663648,-2.25 -2.51799,-2.25 -1.34767,0 -2.908986,0.7875 -3.469591,1.75 -0.913158,1.5678 -1.022448,1.51886 -1.04969,-0.47006 -0.01822,-1.33044 1.171747,-3.10886 2.969591,-4.43806 1.65,-1.2199 3,-2.97827 3,-3.90749 0,-2.52907 1.86648,-3.63251 8.888423,-5.25474 3.50027,-0.80864 6.644804,-1.91935 6.987852,-2.46826 0.343049,-0.5489 4.048103,-3.28635 8.233453,-6.08321 10.317701,-6.89483 10.785401,-7.54106 7.787041,-10.75954 C 101.57855,146.95364 93.975,140.50204 86,134.03174 65.564648,117.4521 55.767522,106.9719 48.555239,93.976269 45.357487,88.214321 40.840672,80.125 38.517873,76 32.174629,64.735195 31.661638,62.478947 32.406148,49.119298 32.762286,42.728684 32.704095,37.004867 32.276836,36.399704 30.373998,33.704559 26.612141,33 14.124758,33 6.1670377,33 0.86757267,32.594745 0.47282129,31.956024 -1.6504753,28.520458 10.236981,21.087331 25.03061,16.600244 32.05176,14.470644 33.869563,13.490823 35.303802,11.06285 37.742136,6.93508 46.492941,1.4657904 50.384572,1.6373061 54.663404,1.8258868 66.868607,4.9320222 70.404155,6.7321443 73.622211,8.3706159 81.625035,14 80.736257,14 79.338994,14 84.124043,24.25331 87.918128,29.389174 92.049312,34.981352 99.110432,41 101.54003,41 c 1.78846,0 12.24335,7.891122 20.52887,15.494737 3.92349,3.600586 12.05637,9.450894 18.07306,13.000684 12.75476,7.525189 20.35575,13.62496 21.66763,17.388212 0.51266,1.470632 3.35273,4.486644 6.31126,6.702249 2.95853,2.215604 7.99758,5.993752 11.19789,8.395888 6.57279,4.9335 13.19694,12.0582 13.97409,15.03002 0.41498,1.58687 0.0227,1.98821 -1.94315,1.98821 -2.34557,0 -2.38881,0.10604 -0.90638,2.22251 2.02894,2.89671 1.96927,3.85703 -0.1933,3.11107 -0.9625,-0.33201 3.425,4.65913 9.75,11.09141 7.92999,8.06451 17.15514,15.90903 29.71679,25.26939 14.45115,10.76834 18.43814,14.24505 19.28764,16.81905 0.58897,1.7846 1.95392,4.04389 3.03322,5.02064 2.9113,2.63469 2.37674,3.95887 -0.78765,1.95112 -1.5125,-0.95965 -2.1875,-1.14641 -1.5,-0.41501 0.6875,0.7314 1.25,1.7854 1.25,2.34223 0,0.55682 -2.1375,-1.05263 -4.75,-3.57657 -5.75782,-5.56263 -17.11401,-13.77248 -23.25,-16.80837 l -4.5,-2.22645 2.5,2.41854 c 1.375,1.3302 6.8875,6.38039 12.25,11.22264 5.3625,4.84225 9.75,9.47182 9.75,10.28794 0,0.88495 -0.58486,1.25941 -1.44907,0.92778 -0.99762,-0.38283 -1.2647,-0.0756 -0.85727,0.98615 0.47528,1.23855 -0.21053,1.13289 -3.48308,-0.53664 -2.24119,-1.14337 -4.35697,-2.53528 -4.70175,-3.09314 C 232.16406,185.45643 231.42586,185 230.8684,185 c -0.55746,0 -0.087,1.17789 1.04539,2.61754 1.13243,1.43964 1.81278,3.01586 1.5119,3.5027 -0.58912,0.95321 -3.90952,-0.47604 -4.92569,-2.12024 -0.33626,-0.54408 -1.59882,-1.5161 -2.80569,-2.16004 -1.95735,-1.04436 -1.89554,-0.80196 0.57233,2.24462 6.72641,8.30377 7.5991,10.86515 1.99621,5.85897 z"
         id="path3420" />
      <path
         style="fill-opacity:1"
         d="m 226,193.14686 c -3.025,-2.55577 -4.87337,-3.84849 -4.1075,-2.87269 0.76588,0.97579 1.13465,2.03201 0.8195,2.34716 -0.31515,0.31515 -5.13461,-3.74476 -10.70992,-9.02203 -5.5753,-5.27727 -11.34408,-9.88705 -12.8195,-10.24396 -4.67346,-1.13052 -27.19223,-12.81787 -40.98136,-21.26952 C 145.45743,144.27489 143,143.38142 143,146.55902 143,147.35156 142.325,148 141.5,148 c -0.825,0 -1.5,0.68625 -1.5,1.525 0,0.88749 -1.22889,1.77078 -2.93965,2.11293 -2.07974,0.41595 -3.41819,1.59638 -4.57557,4.03538 -0.89976,1.8961 -2.26549,3.68905 -3.03497,3.98432 -1.57567,0.60465 -7.13575,-2.54812 -9.92059,-5.62534 -2.04045,-2.25467 -2.4524,-2.36763 -4.31797,-1.18401 -0.95553,0.60624 -1.03005,1.4981 -0.28821,3.44929 1.33844,3.52036 -0.46982,4.60009 -3.17443,1.89548 l -2.04966,-2.04966 -5.83177,4.11268 c -3.20747,2.26197 -5.712715,4.23173 -5.567205,4.37724 0.14551,0.14551 2.150745,-0.2142 4.456085,-0.79936 5.31175,-1.34827 8.77163,-0.48443 10.86675,2.71314 2.07923,3.1733 1.04762,4.36961 -1.65721,1.92178 -1.92208,-1.73946 -2.21608,-1.75212 -4.82994,-0.20808 -1.55963,0.9213 -3.75084,1.3911 -4.98408,1.0686 -1.21045,-0.31654 -4.327236,-0.022 -6.926197,0.65446 -2.598961,0.6765 -5.509465,1.43612 -6.467787,1.68805 -0.958323,0.25193 -3.982585,2.22881 -6.720582,4.39308 C 79.299016,178.22924 76.439364,180 75.682232,180 c -0.757132,0 -1.864914,1.0125 -2.461737,2.25 -1.074635,2.22823 -1.085789,2.22936 -1.152815,0.11663 -0.09712,-3.06142 -3.692637,-3.74017 -5.575177,-1.05246 L 65,183.44501 65,181.176 c 0,-1.46454 1.048442,-2.87074 2.957088,-3.96616 1.817691,-1.04321 3.069951,-2.66286 3.25,-4.20349 0.247833,-2.12063 1.216303,-2.78413 6.292912,-4.31128 8.022967,-2.41347 15.780003,-7.04816 24.5,-14.63829 l 3.5,-3.04651 -5.08337,-4.78778 C 97.620778,143.58921 90.870778,137.87308 85.416631,133.51997 72.264211,123.02267 59.774747,110.88583 54.52444,103.5 50.907471,98.411855 43.319597,85.08081 34.602852,68.5 32.7775,65.027854 32.492665,62.718492 32.444415,51 32.413843,43.575 32.301343,37.009732 32.194415,36.410515 31.765108,34.004716 26.529337,33 14.421562,33 1.1007013,33 -0.37038243,32.4291 1.9204885,28.148569 3.3501994,25.477129 15.043271,19.717868 25.53432,16.517902 30.190444,15.097697 34,13.575176 34,13.134522 34,11.790274 41.311345,4.9065747 44.498522,3.2500658 53.134863,-1.238602 77.729343,7.4790146 80.900725,16.15298 c 4.425278,12.10346 11.354385,20.488147 20.695145,25.042525 3.60509,1.757771 10.70464,6.925597 16.60142,12.084317 10.57374,9.250293 15.13497,12.515095 27.30271,19.542536 8.29823,4.792617 16.96934,12.512172 16.22712,14.446377 -0.32799,0.854726 2.27332,3.375052 7.01331,6.794968 12.2938,8.870007 20.60928,16.360007 23.07355,20.783027 l 2.31399,4.15327 -2.62069,0 c -2.50843,0 -2.55401,0.0952 -1.06398,2.22251 2.05716,2.93701 1.96343,3.69661 -0.38052,3.08366 -3.99738,-1.04534 23.74656,24.67746 37.93722,35.1735 16.47587,12.18628 21,16.19208 21,18.59405 0,0.92477 0.69957,2.26198 1.5546,2.97159 0.85502,0.70961 2.0321,2.18244 2.61573,3.27295 0.96558,1.80421 0.75807,1.77208 -2.3046,-0.35682 -2.87579,-1.999 -3.11099,-2.04584 -1.61573,-0.32176 3.60675,4.1587 1.57246,3.61362 -3,-0.80384 -5.59284,-5.40324 -16.98841,-13.69188 -23,-16.7292 -2.3375,-1.18101 -4.25,-1.98828 -4.25,-1.79394 0,0.19434 5.4,5.17308 12,11.06387 6.6,5.8908 12,11.41408 12,12.27397 0,0.95446 -0.56443,1.34684 -1.44907,1.00738 -1.02933,-0.39499 -1.26474,-0.0757 -0.8127,1.10229 0.6587,1.71657 -0.70389,1.08394 -9.32457,-4.3292 l -2.91366,-1.82955 2.10123,2.44927 c 4.7444,5.53023 3.05797,7.05772 -2.56674,2.32484 -1.71543,-1.44344 -3.29728,-2.44611 -3.51523,-2.22817 -0.21794,0.21795 1.44313,2.75688 3.69127,5.64207 2.24814,2.8852 3.90796,5.41646 3.6885,5.62503 -0.21947,0.20857 -2.87403,-1.71186 -5.89903,-4.26764 z"
         id="path3418" />
      <path
         style="fill-opacity:1"
         d="m 226,193.20604 c -3.025,-2.58832 -4.87337,-3.90767 -4.1075,-2.93187 0.76588,0.97579 1.1281,2.03856 0.80495,2.36172 -0.32316,0.32315 -5.04704,-3.67989 -10.49752,-8.89565 -7.48063,-7.15847 -11.10994,-9.89158 -14.80495,-11.14911 -6.49038,-2.20888 -26.04319,-12.50308 -40.71089,-21.43354 C 145.30069,144.22678 143,143.45363 143,146.55902 143,147.35156 142.43325,148 141.74055,148 c -0.6927,0 -1.8395,0.9288 -2.54844,2.064 -0.70895,1.13519 -2.05469,1.91624 -2.99055,1.73566 -1.1347,-0.21896 -2.41622,1.009 -3.84679,3.686 -1.17988,2.20789 -2.80132,4.14711 -3.60321,4.30939 -0.80188,0.16228 -3.75309,-1.51913 -6.55823,-3.73647 -6.2768,-4.96152 -10.08427,-4.46036 -7.19063,0.94647 1.51071,2.82278 -0.79463,3.64746 -3.27171,1.17038 l -2.06728,-2.06727 -5.84465,4.09979 c -3.21456,2.25488 -5.657708,4.28674 -5.429215,4.51523 0.228493,0.22849 2.218485,-0.12476 4.422205,-0.78502 5.03428,-1.5083 8.69131,-0.62577 10.81076,2.60893 1.95032,2.97656 1.1693,4.38787 -1.14662,2.07196 -1.97888,-1.97889 -2.51949,-1.99678 -5.98631,-0.19818 -1.5063,0.78148 -3.38013,1.17474 -4.16406,0.87392 -0.78394,-0.30083 -4.215448,0.0174 -7.62558,0.70725 -4.614638,0.93347 -7.671045,2.37224 -11.951583,5.62609 C 79.585418,178.03266 76.308417,180 75.466433,180 c -0.841985,0 -1.937857,1.0125 -2.435271,2.25 -0.890306,2.21496 -0.905376,2.21678 -0.967776,0.11663 -0.106669,-3.59013 -4.999621,-3.87332 -6.334495,-0.36663 -0.383009,1.00616 -0.596988,0.76337 -0.649944,-0.73746 C 65.023638,179.695 66.197635,178.26906 69,176.5 c 2.2,-1.3888 4,-2.771 4,-3.07156 0,-0.30056 -0.493259,-0.24162 -1.096132,0.13097 -0.67941,0.4199 -0.964541,-0.0329 -0.75,-1.19098 0.2431,-1.31226 2.13213,-2.4057 6.346132,-3.67336 3.3,-0.99271 6.982563,-2.34271 8.183472,-3 4.385222,-2.40015 15.937768,-10.61906 17.766398,-12.63968 1.84585,-2.03964 1.83639,-2.12256 -0.5354,-4.69086 C 101.58651,146.92655 93.525,140.02728 85,133.03282 63.773698,115.61739 56.070565,107.20424 47.999245,92.621626 44.42466,86.163351 39.855825,78.077945 37.846277,74.654058 32.489529,65.527177 31.688371,61.508277 32.507609,47.873358 l 0.70236,-11.689675 -2.736778,-1.793206 C 28.142416,32.863295 25.825074,32.633196 14.852477,32.839433 3.8468103,33.046291 1.8794985,32.849553 1.3577567,31.489916 -0.09913758,27.69331 11.800567,20.404121 25.925581,16.440844 c 5.101815,-1.431496 7.073223,-2.648387 10.90127,-6.7290276 2.570232,-2.7398283 6.398814,-5.7657984 8.507961,-6.7243781 3.67361,-1.6696078 4.220084,-1.6608075 13,0.2093502 13.75459,2.9297835 23.648198,9.6713395 23.66145,16.1230365 0.0046,2.231202 5.032846,9.850164 9.896877,14.996019 1.983773,2.098715 6.625133,5.406851 10.314131,7.351415 3.689,1.944564 11.39214,7.652434 17.11808,12.684156 6.02828,5.297404 14.99165,11.856275 21.29273,15.580776 12.94861,7.653788 20.38074,13.727827 20.38143,16.657072 3.4e-4,1.470325 2.43712,3.840303 8.22547,8 12.66334,9.100287 20.05087,15.729637 22.589,20.270707 l 2.31399,4.14003 -2.62069,0 c -2.50843,0 -2.55401,0.0952 -1.06398,2.22251 2.06954,2.95468 1.96257,3.69639 -0.44241,3.06747 -4.31913,-1.12948 21.58113,23.05807 36.8726,34.43432 C 244.84854,172.09702 249,175.72743 249,178.07372 c 0,0.92477 0.69957,2.26198 1.5546,2.97159 0.85502,0.70961 2.0321,2.18244 2.61573,3.27295 0.96558,1.80421 0.75807,1.77208 -2.3046,-0.35682 -2.87579,-1.999 -3.11099,-2.04584 -1.61573,-0.32176 3.66753,4.22877 1.52821,3.44183 -3.5,-1.28747 -6.09587,-5.73349 -16.40197,-13.17711 -22.5,-16.25072 -2.3375,-1.17818 -4.25,-1.95984 -4.25,-1.73704 0,0.22281 5.4,5.21531 12,11.09445 6.6,5.87913 12,11.37913 12,12.22221 0,0.97451 -0.56531,1.31594 -1.55194,0.93733 -0.88992,-0.34149 -1.29132,-0.17385 -0.94098,0.39301 1.25343,2.0281 -2.34656,0.88746 -6.34838,-2.01145 -4.92021,-3.56418 -6.27866,-3.8568 -3.48178,-0.75 4.99644,5.5501 2.68397,6.76179 -3.14212,1.64641 -4.71763,-4.14213 -4.48284,-2.26144 0.4652,3.72638 3.37911,4.08919 4.81916,6.52125 3.75,6.33325 -0.1375,-0.0242 -2.725,-2.16168 -5.75,-4.75 z"
         id="path3416" />
      <path
         style="fill-opacity:1"
         d="m 225.57239,192.65826 c -4.55617,-3.96483 -5.49027,-4.48754 -4.03737,-2.25928 1.8673,2.86381 1.86642,2.88532 -0.0724,1.77358 -1.07944,-0.61896 -5.33762,-4.51694 -9.46262,-8.66216 -4.125,-4.14523 -9.24101,-8.31835 -11.36891,-9.27359 -13.2501,-5.94816 -32.81398,-16.24088 -43.13109,-22.69164 -6.6,-4.12664 -12.37963,-7.51247 -12.84362,-7.52407 -0.46399,-0.0116 -1.07897,0.8789 -1.36663,1.9789 -0.29656,1.13405 -1.36402,2 -2.4654,2 -1.06831,0 -1.67822,0.42742 -1.35536,0.94983 0.64603,1.0453 -3.30402,3.54847 -4.19445,2.65805 -0.30479,-0.30479 -1.5691,1.34625 -2.80958,3.66898 -1.24048,2.32273 -2.91151,4.35591 -3.7134,4.51819 -0.80188,0.16228 -3.75309,-1.51913 -6.55823,-3.73647 -6.08039,-4.80626 -8.57749,-4.62324 -7.60559,0.55744 0.7263,3.87149 -0.0604,4.22801 -3.07673,1.39432 l -2.1179,-1.98966 -5.68184,4.17104 c -3.12501,2.29408 -5.530831,4.32205 -5.34627,4.50661 0.184561,0.18456 2.62412,-0.19269 5.42125,-0.83835 4.38763,-1.01279 5.43761,-0.94332 7.64972,0.50611 1.41021,0.92401 2.56403,2.60178 2.56403,3.72839 0,1.86216 -0.14286,1.90552 -1.57143,0.47695 -1.78815,-1.78815 -4.01689,-2.04655 -4.92857,-0.57143 -0.33992,0.55 -2.35715,1 -4.48273,1 -7.733551,0 -14.336483,2.16697 -20.268613,6.65183 C 79.585418,178.04332 76.345279,180 75.548347,180 c -0.796932,0 -1.907643,0.7875 -2.468248,1.75 -0.897748,1.54134 -1.022907,1.55525 -1.04969,0.11663 -0.04436,-2.38281 -4.23999,-3.2247 -5.780409,-1.1599 -1.169001,1.56696 -1.25,1.56676 -1.25,-0.003 0,-0.92322 1.8,-2.81487 4,-4.20367 2.2,-1.3888 3.993109,-3.08194 3.984687,-3.76254 C 72.974685,171.92916 72.63319,172.02021 72,173 c -0.82276,1.27313 -0.97169,1.2276 -0.984687,-0.30103 -0.01739,-2.04495 4.243754,-4.10636 10.677119,-5.16526 2.305838,-0.37953 4.727275,-1.3345 5.380972,-2.12216 0.653697,-0.78765 4.183033,-3.42283 7.842969,-5.85595 3.659936,-2.43313 7.502757,-5.36126 8.539607,-6.50696 1.85836,-2.05346 1.84363,-2.12724 -1.0354,-5.18523 C 100.81426,146.15724 93.875,140.21133 87,134.65028 70.005441,120.90371 58.761382,109.93281 53.611439,102.07284 51.24281,98.457777 45.588691,88.58359 41.04673,80.1302 31.794491,62.910153 30.789853,58.770202 32.90953,46.598113 35.075241,34.161683 31.661728,31.747464 13.276517,32.7126 3.2998599,33.236327 1.9804883,33.112728 1.4000033,31.600009 -0.1295571,27.614038 9.6519652,21.551415 24.934791,17.013062 31.346865,15.108947 32.981062,14.12513 36.814832,9.8610549 39.25972,7.1417511 42.467126,4.2926801 43.9424,3.5297861 47.261179,1.8135786 55.754955,2.2203297 63.70386,4.4761257 69.885627,6.230431 80.341463,12.638484 79.429588,14.113929 79.128396,14.601268 79.302274,15 79.815983,15 c 0.513709,0 1.208266,1.371246 1.54346,3.047213 1.478447,7.392235 11.378377,18.628415 20.779357,23.584066 3.65134,1.924775 9.73332,6.282645 13.5155,9.684156 10.97755,9.872664 15.18623,12.99968 26.37834,19.598923 C 153.32947,77.575345 161,84.05236 161,86.930451 c 0,1.077759 3.20935,4.105792 8.13437,7.67481 11.9316,8.646479 19.67013,15.342339 21.89854,18.947989 2.49981,4.04477 2.4854,5.44675 -0.056,5.44675 -1.92808,0 -1.94615,0.11737 -0.38499,2.5 1.5688,2.3943 1.54886,2.5 -0.47169,2.5 -3.74977,0 19.6006,22.06923 36.87973,34.85629 17.73489,13.12434 22,16.84999 22,19.21743 0,0.92477 0.69957,2.26198 1.5546,2.97159 0.85502,0.70961 2.0321,2.18244 2.61573,3.27295 0.96558,1.80421 0.75807,1.77208 -2.3046,-0.35682 -2.87579,-1.999 -3.11099,-2.04584 -1.61573,-0.32176 3.85038,4.4396 1.41236,3.34402 -4,-1.7975 -3.1625,-3.00424 -8.45,-7.2844 -11.75,-9.51146 -7.00099,-4.72475 -14.99852,-8.94636 -14.05448,-7.41887 0.36003,0.58254 5.80707,5.59203 12.10454,11.13219 C 237.84753,181.5842 243,186.81387 243,187.66552 c 0,0.9886 -0.56112,1.33314 -1.55194,0.95292 -0.88992,-0.34149 -1.29132,-0.17385 -0.94098,0.39301 1.25343,2.0281 -2.34656,0.88746 -6.34838,-2.01145 -5.35405,-3.87845 -5.85655,-3.78148 -2.5909,0.5 3.49157,4.57769 1.00732,4.82187 -4.033,0.39641 -4.73564,-4.15794 -4.46901,-2.33099 0.58644,4.01839 2.26668,2.84683 3.95418,5.33933 3.75,5.53889 -0.20418,0.19956 -3.03866,-1.95838 -6.29885,-4.79543 z"
         id="path3414" />
      <path
         style="fill-opacity:1"
         d="m 229.42301,196.00443 c -1.05766,-1.09058 -3.71663,-3.45023 -5.90884,-5.24365 l -3.98583,-3.26078 1.87346,3 1.87346,3 -3.38763,-3 c -1.8632,-1.65 -6.53763,-5.96891 -10.38763,-9.59758 -4.22533,-3.98242 -8.58552,-7.11414 -11,-7.90079 -4.52254,-1.47346 -29.30881,-14.0227 -33.35276,-16.88643 -1.45598,-1.03106 -6.67147,-4.24741 -11.58998,-7.14746 -8.92061,-5.25976 -8.94628,-5.26748 -10.37198,-3.12027 -0.78607,1.18389 -2.07589,2.15253 -2.86627,2.15253 -0.79037,0 -1.17288,0.42742 -0.85002,0.94983 0.67612,1.09398 -2.45465,2.96691 -4.01265,2.40049 -0.57402,-0.20869 -2.03067,1.65212 -3.23701,4.13513 -1.20633,2.483 -2.8154,4.51455 -3.5757,4.51455 -0.76031,0 -3.64674,-1.80292 -6.41431,-4.00649 -6.04386,-4.81219 -8.62174,-4.60218 -7.64158,0.62251 0.7263,3.87149 -0.0604,4.22801 -3.07673,1.39432 l -2.1179,-1.98966 -5.68184,4.17104 c -3.12501,2.29408 -5.518196,4.33469 -5.318192,4.53469 0.200004,0.2 2.403892,-0.1501 4.897542,-0.778 5.19183,-1.30732 9.92303,0.2069 10.53235,3.37089 0.3065,1.5915 0.10175,1.65063 -1.73777,0.50184 -1.66965,-1.04272 -2.48107,-1.05501 -4.07163,-0.0617 -1.09254,0.6823 -3.49249,1.24055 -5.33322,1.24055 -7.655031,0 -14.355605,2.18489 -20.27206,6.61021 -3.227918,2.4144 -6.417934,4.3898 -7.088926,4.3898 -0.670991,0 -1.67866,0.7875 -2.239265,1.75 -0.897748,1.54134 -1.022907,1.55525 -1.04969,0.11663 -0.04436,-2.38281 -4.23999,-3.2247 -5.780409,-1.1599 -1.169001,1.56696 -1.25,1.56676 -1.25,-0.003 0,-0.92322 1.8,-2.81487 4,-4.20367 2.2,-1.3888 3.993109,-3.08194 3.984687,-3.76254 C 72.974685,171.92916 72.63319,172.02021 72,173 c -0.568247,0.8793 -0.975711,1.01231 -0.984687,0.32143 -0.02973,-2.28812 2.887233,-4.02746 8.890931,-5.30153 3.339495,-0.70869 6.585684,-1.90771 7.213754,-2.66449 0.62807,-0.75678 4.136439,-3.36669 7.796375,-5.79981 3.659936,-2.43313 7.502757,-5.36126 8.539607,-6.50696 1.85835,-2.05346 1.84362,-2.12732 -1.0354,-5.18972 -1.60632,-1.70864 -8.763216,-7.88838 -15.904215,-13.73277 C 60.394967,112.74771 56.604005,108.31929 42.719855,82.96519 31.572265,62.608376 30.538846,58.609186 33.1134,45.789535 34.002702,41.361375 33.950022,39.667296 32.851669,37.372753 30.739118,32.959475 26.401509,31.903025 13.256319,32.600191 3.3872047,33.123607 1.9352723,32.994897 1.3798051,31.547373 -0.08339783,27.734327 10.156977,21.420444 24.949571,17.015018 31.335664,15.113158 32.987263,14.118233 36.802434,9.8748449 44.196007,1.6514117 47.434225,0.84769724 60.631581,3.9605329 69.500231,6.0523649 80.679912,12.090863 79.429588,14.113929 79.128396,14.601268 79.358524,15 79.940983,15 80.523442,15 81,16.064263 81,17.365029 c 0,2.56288 5.982482,11.962596 10.997758,17.279751 1.716253,1.819557 6.163488,4.907352 9.882742,6.861766 3.71926,1.954414 10.78016,7.14794 15.69089,11.541169 9.732,8.706415 14.98066,12.488001 26.41821,19.033928 8.43686,4.82858 17.0104,12.333506 17.0104,14.890211 0,0.980952 3.90672,4.594326 9.25,8.555447 11.67305,8.653549 17.41181,13.625759 20.39805,17.673369 2.91418,3.94994 2.98974,5.79933 0.23694,5.79933 -2.02616,0 -2.0462,0.10502 -0.47695,2.5 1.57805,2.4084 1.55655,2.5 -0.58688,2.5 -3.97698,0 17.54487,20.0743 38.05989,35.5 12.7332,9.57437 19.14291,15.0492 20.27645,17.31905 0.91162,1.82547 2.30568,4.07547 3.09789,5 0.79222,0.92452 1.8112,2.35595 2.2644,3.18095 0.67924,1.23649 0.48637,1.21929 -1.0979,-0.0979 -1.05704,-0.87884 -2.59689,-1.95736 -3.42189,-2.3967 -1.21893,-0.64913 -1.26578,-0.54647 -0.25,0.5479 0.6875,0.74068 1.25,1.80228 1.25,2.35911 0,0.55682 -2.1375,-1.04696 -4.75,-3.56396 -5.27006,-5.07742 -13.3473,-11.10473 -20.33786,-15.1763 -9.3802,-5.4634 -7.3201,-2.69653 7.83786,10.52681 5.6375,4.91798 10.25,9.63326 10.25,10.4784 0,0.9779 -0.56429,1.32008 -1.55194,0.94108 -0.88992,-0.34149 -1.29132,-0.17385 -0.94098,0.39301 1.26117,2.04063 -2.29323,0.88078 -6.07894,-1.98363 -5.20827,-3.94077 -6.11242,-3.79152 -2.86034,0.47218 3.5019,4.59123 1.00158,4.81683 -4.06659,0.36692 -1.96261,-1.7232 -3.76136,-2.9401 -3.99723,-2.70423 -0.23587,0.23586 1.61591,3.03408 4.11507,6.21826 4.47187,5.69763 5.56653,8.50319 1.80396,4.62348 z"
         id="path3412" />
      <path
         style="fill-opacity:1"
         d="M 229.61241,195.53121 C 228.70022,194.13904 227.42639,193 226.78167,193 c -0.64473,0 -2.52086,-1.2375 -4.16919,-2.75 l -2.99695,-2.75 1.83091,2.92645 c 1.63824,2.61851 1.29472,2.47435 -3.26444,-1.36999 -2.80243,-2.36305 -5.22733,-4.62826 -5.38867,-5.0338 -0.80858,-2.0325 -12.34165,-10.98418 -14.86601,-11.53862 -3.39872,-0.74649 -28.61207,-13.53732 -34.42732,-17.46512 -2.2,-1.48595 -7.34834,-4.64308 -11.44076,-7.01584 l -7.44076,-4.31412 -1.43121,2.15552 C 142.4001,147.03002 141.13594,148 140.37803,148 c -0.75792,0 -1.26553,0.5625 -1.12803,1.25 0.13775,0.68874 -0.9168,1.38552 -2.34862,1.55182 -1.9422,0.22557 -3.1598,1.42545 -4.82016,4.75 -1.22184,2.4465 -2.8493,4.44818 -3.61658,4.44818 -0.76727,0 -2.87321,-1.24854 -4.67984,-2.77454 -5.7418,-4.84987 -6.49556,-5.27368 -8.20966,-4.61592 -1.26103,0.4839 -1.52144,1.35848 -1.04729,3.51725 0.71035,3.23422 -0.80031,3.8416 -3.49326,1.40451 -1.44689,-1.30942 -2.24723,-1.02578 -7.37998,2.61543 -3.1664,2.24627 -5.521936,4.31928 -5.234526,4.60669 0.287409,0.28741 2.501596,-0.0315 4.920416,-0.70876 3.74904,-1.04967 4.85974,-0.99247 7.52868,0.38769 1.72195,0.89045 3.13082,2.28627 3.13082,3.1018 0,1.23247 -0.33764,1.27194 -2,0.23378 -1.59324,-0.995 -2.404,-0.99672 -3.98643,-0.008 -1.09254,0.6823 -3.77039,1.24055 -5.95078,1.24055 -7.819382,0 -13.828293,2.00477 -19.718782,6.57883 C 79.212533,178.01047 76.076434,180 75.374899,180 c -0.701535,0 -1.734195,0.7875 -2.2948,1.75 -0.897748,1.54134 -1.022907,1.55525 -1.04969,0.11663 -0.04436,-2.38281 -4.23999,-3.2247 -5.780409,-1.1599 -1.169001,1.56696 -1.25,1.56676 -1.25,-0.003 0,-0.92322 1.8,-2.81487 4,-4.20367 2.2,-1.3888 3.993109,-3.08194 3.984687,-3.76254 C 72.974685,171.92916 72.63319,172.02021 72,173 c -0.568247,0.8793 -0.975711,1.01231 -0.984687,0.32143 -0.02995,-2.30519 2.920967,-4.04868 8.815214,-5.20831 3.287143,-0.6467 6.54992,-1.8666 7.250616,-2.71089 0.700696,-0.84429 4.231587,-3.46182 7.846425,-5.81673 3.614837,-2.35491 7.438622,-5.25991 8.497302,-6.45555 1.91717,-2.16519 1.91117,-2.18827 -1.5,-5.7665 C 100.04119,145.38752 92.875,139.23818 86,133.69825 63.246369,115.3632 53.799251,104.54946 44.703766,86.428097 42.751523,82.53855 39.554205,76.700072 37.598615,73.453702 32.447092,64.901932 31.347864,58.904876 32.909499,47.871294 34.018946,40.032599 33.983386,38.623589 32.623735,36.548499 30.102123,32.700033 25.121171,31.670027 12.871514,32.46396 3.3227262,33.082843 1.9256248,32.969756 1.3744218,31.533344 -0.08304501,27.735247 10.184246,21.412323 24.949571,17.015018 31.340623,15.111681 32.98602,14.119616 36.814832,9.8610549 39.25972,7.1417511 42.444566,4.3043462 43.892267,3.5557108 49.548269,0.63087851 66.3419,3.9888433 74.71934,9.7197279 77.589976,11.683489 79.700919,13.674907 79.410323,14.145101 79.119726,14.615295 79.358524,15 79.940983,15 80.523442,15 81,16.055234 81,17.344964 c 0,2.853049 6.431255,13.019624 11.343468,17.931837 1.973744,1.973745 6.416405,4.953566 9.872582,6.621826 3.85672,1.861601 10.14653,6.510309 16.28395,12.035231 6.38379,5.746704 14.15865,11.452467 21.5,15.778279 12.30825,7.252504 21,14.437839 21,17.360384 0,1.129229 3.82483,4.586231 10.27504,9.286899 C 182.16436,104.29514 193,114.80229 193,117.42576 193,118.44994 192.10151,119 190.42857,119 c -2.33766,0 -2.42857,0.14286 -1,1.57143 2.05861,2.05861 1.9944,3.42857 -0.1607,3.42857 -3.63357,0 19.08227,20.98958 38.56976,35.63871 14.55992,10.94499 19.68283,15.36268 20.73484,17.8805 0.76848,1.83922 1.85163,3.62486 2.407,3.9681 0.55538,0.34324 1.52767,1.61151 2.16066,2.81838 1.09108,2.08028 1.05239,2.11127 -0.74462,0.59641 -1.04253,-0.87884 -2.57051,-1.95736 -3.39551,-2.3967 -1.21893,-0.64913 -1.26578,-0.54647 -0.25,0.5479 0.6875,0.74068 1.25,1.80228 1.25,2.35911 0,0.55682 -2.1375,-1.04696 -4.75,-3.56396 C 238.24054,175.09522 222.21794,164 219.47505,164 c -1.32617,0 4.17054,5.46259 14.27495,14.18636 5.0875,4.39236 9.25,8.67044 9.25,9.50686 0,0.91052 -0.57598,1.29973 -1.43539,0.96995 -0.78947,-0.30295 -1.60382,-0.0456 -1.80967,0.572 -0.22318,0.66954 -2.23956,-0.16053 -4.99478,-2.05618 -5.74033,-3.94945 -6.41612,-3.98524 -3.61113,-0.19129 3.18828,4.31238 1.509,4.87583 -3.2157,1.07897 -2.23624,-1.7971 -4.24416,-3.08917 -4.46204,-2.87129 -0.21789,0.21788 1.6486,3.00139 4.14776,6.18557 2.49915,3.18418 4.3432,5.99013 4.09789,6.23544 -0.24531,0.24532 -1.19235,-0.69302 -2.10453,-2.08518 z"
         id="path3410" />
      <path
         style="fill-opacity:1"
         d="M 229.61241,195.53121 C 228.70022,194.13904 227.42639,193 226.78167,193 c -0.64473,0 -2.52086,-1.2375 -4.16919,-2.75 l -2.99695,-2.75 1.86387,3 c 1.74108,2.80237 1.57258,2.73895 -2.55777,-0.96267 -2.4319,-2.17947 -5.09663,-4.7378 -5.92163,-5.68517 -3.50536,-4.02532 -12.47487,-10.79755 -15.04995,-11.36313 -3.76315,-0.82653 -30.00093,-14.6424 -42.80402,-22.53906 -10.0281,-6.18511 -10.39965,-6.32415 -11.80571,-4.41803 -0.79846,1.08243 -2.10167,1.83583 -2.89603,1.67422 C 139.5605,147.02636 139,147.70549 139,148.95616 139,150.428 138.34994,151 136.67726,151 c -1.75327,0 -2.87376,1.10329 -4.57016,4.5 -1.23607,2.475 -2.47042,4.5 -2.74299,4.5 -1.04141,0 -5.00659,-2.43879 -8.44672,-5.19516 -4.47789,-3.58786 -7.33795,-2.99614 -6.38954,1.32195 0.72256,3.28982 -0.80981,3.833 -3.62526,1.28506 -1.62307,-1.46886 -2.17556,-1.27055 -7.35525,2.64016 -3.08019,2.32557 -5.380665,4.448 -5.112154,4.71651 0.268511,0.26851 2.537044,-0.0277 5.041184,-0.65825 3.76593,-0.94828 5.06903,-0.87959 7.5383,0.39732 1.64193,0.84907 2.98533,2.18053 2.98533,2.95879 0,1.21974 -0.37609,1.2199 -2.72526,0.001 -2.36796,-1.22851 -2.83334,-1.22074 -3.54969,0.0593 -0.53138,0.94954 -2.3888,1.47318 -5.22552,1.47318 -8.257555,0 -14.167484,1.92902 -20.155522,6.57883 C 79.212533,178.01047 76.076434,180 75.374899,180 c -0.701535,0 -1.734195,0.7875 -2.2948,1.75 -0.897748,1.54134 -1.022907,1.55525 -1.04969,0.11663 -0.04436,-2.38281 -4.23999,-3.2247 -5.780409,-1.1599 -1.169001,1.56696 -1.25,1.56676 -1.25,-0.003 0,-0.92322 1.8,-2.81487 4,-4.20367 2.2,-1.3888 3.993109,-3.08194 3.984687,-3.76254 C 72.974685,171.92916 72.63319,172.02021 72,173 c -0.568247,0.8793 -0.975711,1.01231 -0.984687,0.32143 -0.03003,-2.31122 2.927071,-4.04988 8.879859,-5.22102 3.322697,-0.6537 6.315397,-1.6321 6.650443,-2.17422 0.335046,-0.54211 3.61876,-2.96839 7.297143,-5.39172 3.678384,-2.42333 7.776842,-5.5651 9.107672,-6.98171 l 2.41971,-2.57566 -3.43507,-3.60313 C 100.04578,145.39225 92.875,139.22137 86,133.6609 71.643134,122.04912 58.715119,109.54052 54.252136,102.943 51.625855,99.060628 44.809156,86.85196 35.401244,69.181161 32.198602,63.165666 31.51948,57.065303 32.968318,47.326872 34.05544,40.019738 34.014391,38.670909 32.641112,36.57502 30.118463,32.724971 25.013405,31.63644 12.766211,32.337174 3.6080793,32.861164 1.8304937,32.721849 1.3392166,31.441601 -0.01822093,27.904176 11.129826,21.108734 25,17.018854 c 6.495963,-1.915457 8.072155,-2.85977 11.773913,-7.0538723 2.350651,-2.663296 5.582811,-5.4953211 7.182576,-6.2933892 5.870436,-2.92855917 21.850143,0.2591153 30.773314,6.1387428 2.876392,1.8953027 4.987335,3.8383287 4.690983,4.3178347 C 79.124435,14.607677 79.262762,15 79.728179,15 c 0.465417,0 0.917834,0.950799 1.005371,2.112886 0.229807,3.050757 6.071836,12.312103 11.045682,17.510675 2.353578,2.459916 6.351132,5.360694 8.883448,6.446174 5.32225,2.28138 9.93893,5.725627 20.1426,15.027264 4.01791,3.662711 12.50736,9.729737 18.86546,13.482281 C 152.31083,77.039453 161,84.147902 161,87.028348 c 0,1.18526 3.66705,4.515417 10.27504,9.331072 C 182.16436,104.29514 193,114.80229 193,117.42576 193,118.44994 192.10151,119 190.42857,119 c -2.33766,0 -2.42857,0.14286 -1,1.57143 2.05861,2.05861 1.9944,3.42857 -0.1607,3.42857 -3.66861,0 19.0699,21.04001 38.58349,35.70142 14.162,10.64052 19.71094,15.40009 20.69223,17.74865 0.73747,1.76503 2.04186,3.79092 2.89863,4.50198 2.631,2.18354 1.72483,3.20071 -1.19222,1.33827 -2.67907,-1.71051 -2.71131,-1.70688 -1.25,0.14066 1.39381,1.76221 1.35842,1.82058 -0.5,0.82456 -1.1,-0.58954 -3.125,-2.28154 -4.5,-3.76 -3.26523,-3.5109 -16.2741,-12.638 -22,-15.43531 l -4.5,-2.19842 6.53023,6.31909 c 3.59163,3.47551 9.32913,8.81379 12.75,11.86285 3.42087,3.04907 6.21977,6.11313 6.21977,6.80902 0,0.6959 -0.50031,0.95605 -1.1118,0.57813 -0.6115,-0.37792 -1.46057,-0.12282 -1.88683,0.56689 -0.57585,0.93174 -1.94264,0.45068 -5.31838,-1.87189 -5.66188,-3.89547 -6.33119,-3.92165 -3.53396,-0.1382 3.18828,4.31238 1.509,4.87583 -3.2157,1.07897 -2.23624,-1.7971 -4.27621,-3.05712 -4.53328,-2.80006 -0.25706,0.25707 1.62006,3.02995 4.17138,6.16196 2.55132,3.13201 4.42743,5.90591 4.16912,6.16421 -0.2583,0.2583 -1.21596,-0.66941 -2.12814,-2.06157 z"
         id="path3408" />
      <path
         style="fill-opacity:1"
         d="M 229.61241,195.53121 C 228.70022,194.13904 227.42639,193 226.78167,193 c -0.64473,0 -2.49268,-1.2375 -4.10656,-2.75 -2.91319,-2.73019 -2.92504,-2.73211 -1.64448,-0.26634 0.70941,1.36602 -3.16976,-1.66581 -8.62039,-6.7374 -6.92997,-6.44805 -11.26351,-9.6778 -14.41024,-10.73984 -5.87764,-1.98372 -27.59267,-13.40759 -41.5,-21.83237 -6.05,-3.66496 -11.51002,-6.66593 -12.13337,-6.66881 -0.62335,-0.003 -1.36921,0.89662 -1.65746,1.99889 -0.34962,1.33695 -1.05424,1.80068 -2.11663,1.39301 C 139.44635,146.9573 139,147.37656 139,148.89301 139,150.45466 138.37425,151 136.58236,151 c -1.84172,0 -2.85414,0.9438 -4.25,3.96196 -2.79592,6.04538 -2.776,6.04762 -12.94146,-1.45145 -3.13208,-2.31054 -5.64789,-0.95706 -4.86305,2.61628 0.72058,3.2808 -0.80826,3.83441 -3.60341,1.30483 -1.59468,-1.44317 -2.22849,-1.20366 -7.93875,3 -6.356484,4.67938 -6.048533,5.5467 1.24974,3.51982 3.79399,-1.05367 7.29736,-0.10057 8.99926,2.44826 1.46444,2.1932 0.71146,2.61112 -1.77232,0.98369 -2.26339,-1.48303 -2.66865,-1.49829 -3.75,-0.14117 -0.78944,0.99075 -3.69478,1.71296 -8.328347,2.07024 -8.494296,0.65498 -12.425313,2.17375 -18.22901,7.04286 -2.389743,2.00492 -4.721453,3.41263 -5.181578,3.12826 -0.460125,-0.28437 -1.542381,0.49062 -2.405013,1.7222 C 72.391246,182.88643 72,183.04442 72,181.83914 c 0,-2.35784 -4.216305,-3.1882 -5.75,-1.13241 -1.0817,1.44994 -1.25,1.46573 -1.25,0.11729 0,-0.85704 1.8,-2.74943 4,-4.20532 3.609378,-2.38858 5.795544,-5.64916 2.75,-4.10153 -0.6875,0.34936 -0.223443,-0.27009 1.031237,-1.37657 1.254681,-1.10648 4.734334,-2.52103 7.732563,-3.14346 2.99823,-0.62243 5.733808,-1.58876 6.079065,-2.1474 0.345256,-0.55863 3.10109,-2.59788 6.124076,-4.53167 3.022986,-1.93378 7.282886,-5.13 9.466439,-7.10271 l 3.97011,-3.58675 -3.82675,-3.35023 C 100.22203,145.43576 92.65,139.11295 85.5,133.22771 70.560287,120.93065 58.791061,109.5097 54.291788,102.943 51.634411,99.064548 45.033937,87.269035 35.417715,69.213694 32.368143,63.487842 31.481908,55.545581 32.996732,47.517322 34.525397,39.415703 33.820283,36.486111 29.723163,33.916383 26.918683,32.157403 25.006173,31.918495 15,32.077181 0.92599419,32.300379 1,32.307795 1,30.674314 1,26.82407 12.271685,20.831729 28.642327,15.978885 c 2.838228,-0.841352 5.326446,-2.644519 7.903551,-5.727562 2.068673,-2.4747964 5.696495,-5.3556919 8.061826,-6.4019903 3.765427,-1.6656275 5.12372,-1.7708671 10.915082,-0.8456927 3.637963,0.5811675 8.821487,1.8952652 11.518941,2.920217 5.510843,2.0939555 13.279033,7.42205 12.279051,8.422032 -0.359761,0.359761 -0.241611,0.654429 0.262555,0.654817 0.504167,3.89e-4 0.979517,1.092525 1.056334,2.426971 C 80.963157,23.047288 96.076821,41 100.48426,41 c 1.87769,0 12.43747,7.726395 19.2539,14.087726 6.88083,6.421437 14.27089,11.649588 24.47896,17.317819 C 152.21165,76.844664 161,84.471891 161,86.97106 c 0,1.683936 3.53558,4.703925 15.65991,13.37623 C 182.75432,104.7065 193,115.49746 193,117.557 c 0,0.895 -1.00828,1.443 -2.65499,1.443 -2.50876,0 -2.56384,0.10072 -1,1.82874 2.11226,2.33402 2.0919,3.17126 -0.0771,3.17126 -3.68802,0 19.06299,21.07173 38.59421,35.74553 13.35984,10.03724 19.79462,15.50892 20.75735,17.6506 0.76739,1.70713 2.1763,4.19839 3.13091,5.53614 l 1.73565,2.43227 -2.993,-1.91501 c -2.97356,-1.90257 -2.98325,-1.90213 -1.49299,0.0677 0.825,1.09051 -0.525,0.28511 -3,-1.78978 -7.53661,-6.31822 -18.22388,-13.76971 -23.5,-16.38489 l -5,-2.47833 7.04233,6.81787 c 3.87329,3.74983 9.72329,9.23006 13,12.1783 4.28843,3.85852 5.53739,5.51159 4.45767,5.89994 -0.825,0.29674 -1.76352,0.9414 -2.0856,1.43258 -0.32208,0.49119 -2.9548,-0.70128 -5.85049,-2.64994 C 231.16822,184.59435 228.59634,183 228.34862,183 c -0.24772,0 0.76025,1.58725 2.23994,3.52722 3.63634,4.76749 2.31496,5.5336 -2.65523,1.53945 -2.23624,-1.7971 -4.28687,-3.04646 -4.55696,-2.77638 -0.27008,0.27009 1.59626,3.05374 4.14744,6.1859 2.55118,3.13216 4.43794,5.89539 4.1928,6.14053 -0.24513,0.24513 -1.19202,-0.69335 -2.1042,-2.08551 z"
         id="path3406" />
      <path
         style="fill-opacity:1"
         d="m 229,194.5 c -0.68469,-0.825 -1.72767,-1.5 -2.31773,-1.5 -0.59006,0 -2.33496,-1.20919 -3.87755,-2.68709 -2.74234,-2.62732 -4.02815,-2.0701 -1.55472,0.67376 0.6875,0.76267 -3.24676,-2.74849 -8.74279,-7.80258 -5.71314,-5.25373 -11.49484,-9.67661 -13.5,-10.32723 -5.60491,-1.81862 -29.4908,-14.26278 -41.97717,-21.86942 C 150.72156,147.14435 145.03654,144 144.39667,144 c -0.63987,0 -1.39925,0.90186 -1.6875,2.00413 -0.34962,1.33695 -1.05424,1.80068 -2.11663,1.39301 C 139.44635,146.9573 139,147.37656 139,148.89301 139,150.45466 138.37425,151 136.58236,151 c -1.84172,0 -2.85414,0.9438 -4.25,3.96196 -2.35187,5.08526 -3.46971,5.45923 -7.51781,2.51508 -1.823,-1.32586 -4.32358,-3.15006 -5.55683,-4.05379 -3.28667,-2.40849 -5.57996,-1.1669 -4.7579,2.57592 0.74872,3.40893 -0.73468,4.00325 -3.57538,1.43245 -1.59468,-1.44317 -2.22849,-1.20366 -7.93875,3 -6.25971,4.60813 -6.032369,5.58934 0.83846,3.61881 3.50451,-1.00508 8.00157,0.0783 9.39019,2.26213 1.45754,2.29226 0.76148,2.7177 -1.75197,1.07083 -2.26232,-1.48233 -2.66916,-1.4978 -3.75,-0.14256 -0.8058,1.01037 -3.8214,1.72449 -8.992251,2.12944 -8.56177,0.67051 -11.303413,1.76872 -17.647472,7.06904 -2.344441,1.95872 -4.639087,3.32864 -5.099212,3.04427 -0.460125,-0.28437 -1.542381,0.49062 -2.405013,1.7222 C 72.391246,182.88643 72,183.04442 72,181.83914 c 0,-2.35784 -4.216305,-3.1882 -5.75,-1.13241 -1.0817,1.44994 -1.25,1.46573 -1.25,0.11729 0,-0.85704 1.8,-2.74943 4,-4.20532 3.609378,-2.38858 5.795544,-5.64916 2.75,-4.10153 -0.6875,0.34936 -0.223443,-0.27009 1.031237,-1.37657 1.254681,-1.10648 4.734334,-2.52103 7.732563,-3.14346 2.99823,-0.62243 5.692999,-1.52273 5.988376,-2.00066 0.295378,-0.47793 3.565725,-2.88679 7.267437,-5.35301 3.701713,-2.46623 7.961527,-5.77541 9.466257,-7.35374 l 2.73588,-2.86968 -6.1889,-5.46003 C 96.378956,141.95701 89.952961,136.575 85.502862,133 63.297036,115.16089 56.008587,107.07185 46.964362,90.228326 43.500689,83.777747 39.180136,76.025 37.363134,73 32.589213,65.052229 31.473186,58.652077 33.001695,47.988175 34.421932,38.079655 33.827911,35.99661 28.847648,33.421216 26.473196,32.193339 23.169379,31.867779 14.627292,32.019932 0.8262364,32.26576 1,32.282918 1,30.674314 1,27.178486 14.929622,19.544012 26,16.972445 30.582048,15.908069 32.251051,14.862634 36,10.708614 43.735364,2.1374489 47.87646,1.1775824 62.288639,4.6151584 69.06183,6.230692 80.386926,12.564923 79.389024,14.179563 c -0.278882,0.45124 -0.143,0.820755 0.301959,0.821143 0.444959,3.89e-4 0.871867,1.092525 0.948684,2.426971 0.342105,5.94299 14.222724,22.143993 20.711803,24.174138 3.39073,1.06081 10.6193,6.288055 17.14853,12.400732 8.18896,7.66652 12.35043,10.705441 23.90997,17.460272 C 153.226,77.783177 161,84.272106 161,86.979843 c 0,1.569385 7.55716,8.122883 14.14017,12.262223 C 181.95359,103.52629 193,115.40671 193,118.45034 193,118.75265 191.80526,119 190.34501,119 c -2.50876,0 -2.56384,0.10072 -1,1.82874 2.06104,2.27742 2.13225,3.56838 0.15499,2.80963 -3.12209,-1.19806 -1.16797,1.22462 9.75,12.08781 7.0583,7.02289 18.14303,16.33942 29.75,25.00439 14.99229,11.19221 18.68141,14.42312 19.4568,17.04013 0.52623,1.77611 1.2979,3.2293 1.71481,3.2293 0.41691,0 1.28933,1.0125 1.93872,2.25 1.14569,2.18331 1.12217,2.19813 -0.79356,0.5 -2.29354,-2.03302 -3.77791,-2.31097 -2.67027,-0.5 0.4205,0.6875 -1.01544,-0.22877 -3.19098,-2.03615 C 238.39876,175.35126 227.61903,167.8808 222.5,165.30543 l -5,-2.51548 4.5,4.6876 c 2.475,2.57818 7.95621,7.61935 12.18046,11.2026 8.14431,6.90848 10.44503,9.97819 6.75541,9.01333 -1.54499,-0.40402 -1.94798,-0.16742 -1.53737,0.90262 0.45955,1.19756 0.16847,1.25009 -1.67101,0.30156 -1.22512,-0.63174 -3.65997,-2.21716 -5.41077,-3.52314 -4.40623,-3.28676 -4.87554,-2.97373 -1.72816,1.1527 3.63634,4.76749 2.31496,5.5336 -2.65523,1.53945 -2.23624,-1.7971 -4.27633,-3.057 -4.53355,-2.79979 -0.25721,0.25721 1.35808,2.77739 3.58954,5.60039 2.23145,2.823 3.87682,5.13273 3.65638,5.13273 -0.22045,0 -0.96101,-0.675 -1.6457,-1.5 z"
         id="path3404" />
      <path
         style="fill-opacity:1"
         d="m 229,194.5 c -0.68469,-0.825 -1.72767,-1.5 -2.31773,-1.5 -0.59006,0 -2.33496,-1.20919 -3.87755,-2.68709 -2.74234,-2.62732 -4.02815,-2.0701 -1.55472,0.67376 0.6875,0.76267 -3.24676,-2.74849 -8.74279,-7.80258 -5.71314,-5.25373 -11.49484,-9.67661 -13.5,-10.32723 -5.84042,-1.89503 -29.7917,-14.40278 -41.84271,-21.85093 C 150.92998,147.15267 145.24496,144 144.53113,144 c -0.71382,0 -1.53371,0.90186 -1.82196,2.00413 -0.34962,1.33695 -1.05424,1.80068 -2.11663,1.39301 C 139.44635,146.9573 139,147.37656 139,148.89301 139,150.45466 138.37425,151 136.58236,151 c -1.84393,0 -2.85247,0.9431 -4.25,3.9742 -2.35434,5.10633 -5.00378,5.22089 -10.29021,0.44491 -4.86637,-4.39647 -7.60701,-4.26041 -7.3947,0.36711 0.16159,3.52202 -1.05353,4.06124 -3.71803,1.6499 -1.5871,-1.4363 -2.22134,-1.21197 -7.77483,2.75 -3.32572,2.37263 -6.071024,4.61997 -6.100676,4.99407 -0.02965,0.37411 1.408586,0.25189 3.196086,-0.2716 5.3821,-1.57622 9.58609,-1.3669 11.74253,0.58465 2.8887,2.61424 2.47284,3.85779 -0.61376,1.83537 -2.33921,-1.53271 -2.74269,-1.55277 -3.75,-0.18648 -0.75797,1.02807 -3.68448,1.74559 -8.908651,2.18422 -8.49353,0.71311 -10.969815,1.69586 -17.67045,7.01276 -2.447682,1.94222 -4.779392,3.32793 -5.181578,3.07937 -0.402186,-0.24857 -1.488363,0.56809 -2.413728,1.81479 -1.637714,2.20642 -1.669492,2.21015 -1.194298,0.14008 0.417094,-1.81697 0.06251,-2.10525 -2.435,-1.97964 -1.607751,0.0809 -3.344216,0.81285 -3.858811,1.62665 -0.810261,1.28138 -0.93768,1.2676 -0.950941,-0.10282 -0.0084,-0.87035 1.642374,-2.67035 3.668436,-4 3.543866,-2.32574 6.18716,-6.03146 3.195983,-4.48055 -0.758853,0.39346 -0.347839,-0.19423 0.913364,-1.30599 1.261203,-1.11176 4.33058,-2.32692 6.820839,-2.70036 2.490258,-0.37343 5.733365,-1.65816 7.206903,-2.85494 1.473539,-1.19678 4.929162,-3.59074 7.679162,-5.31991 2.75,-1.72917 6.46833,-4.65905 8.26296,-6.51084 l 3.26295,-3.3669 -6.262954,-5.48336 C 96.31833,141.87885 88.775,135.6069 83,130.95704 70.1912,120.64377 58.507251,108.99323 53.800089,101.84062 51.867013,98.903278 47.907143,92 45.000378,86.5 42.093613,81 38.471918,74.475 36.952166,72 32.752201,65.160122 31.526426,57.450632 33.099124,47.766343 34.212444,40.910791 34.186875,39.423635 32.916783,37.160808 30.471793,32.804754 27.58895,32.030743 13.75,32.014742 3.4472737,32.00283 1,31.729148 1,30.588894 1,27.024356 13.542527,20.403226 27.75,16.467716 31.1875,15.515519 34,14.361406 34,13.903021 34,13.444635 35.398134,11.477206 37.106964,9.5309557 40.12755,6.0906984 44.153824,3.726311 48.752067,2.6924895 51.646586,2.041716 64.319859,4.6344032 69.5,6.9370834 c 5.100573,2.2673107 10.928008,7.8903556 11.244863,10.8504646 0.346582,3.237821 9.607692,16.629666 13.497168,19.517313 1.791883,1.33034 6.031799,3.873063 9.422039,5.650496 3.39024,1.777434 9.46524,6.241167 13.5,9.919407 9.92267,9.045881 13.71729,11.850244 24.83593,18.354663 11.00534,6.438138 19,13.110558 19,15.857582 0,1.26981 3.29178,4.329048 9.75,9.061236 11.14906,8.169345 18.76841,15.138885 20.82846,19.052095 1.74462,3.31405 1.77312,3.93299 0.17154,3.72501 -3.46356,-0.44976 -4.0876,0.0441 -2.40499,1.90339 2.05862,2.27475 2.12057,3.28715 0.15499,2.53289 -7.56076,-2.90134 18.09061,21.38308 39.46706,37.36388 15.06318,11.26106 18.63803,14.40193 19.39466,17.04013 0.51018,1.7789 1.29667,3.23436 1.74776,3.23436 0.45108,0 1.35146,1.0125 2.00085,2.25 1.14569,2.18331 1.12217,2.19813 -0.79356,0.5 -2.29365,-2.03312 -3.7771,-2.31074 -2.67175,-0.5 0.41968,0.6875 -1.46626,-0.58663 -4.19098,-2.8314 -8.4001,-6.92044 -15.79517,-12.05207 -21.49547,-14.91625 l -5.45857,-2.74272 2.5,2.75458 c 1.375,1.51502 6.775,6.57212 12,11.23799 10.5581,9.42828 12.5969,11.89866 9.05568,10.97261 -1.65952,-0.43397 -2.07436,-0.21586 -1.65718,0.87129 0.46208,1.20415 0.17858,1.25015 -1.67101,0.27115 -1.22512,-0.64847 -3.61997,-2.23388 -5.32188,-3.52314 -4.35606,-3.29987 -4.94426,-2.91688 -1.81705,1.18311 3.62235,4.74915 2.4153,5.43591 -2.58856,1.47278 -2.25073,-1.78261 -4.31175,-3.02158 -4.58005,-2.75328 -0.2683,0.2683 1.33791,2.79755 3.56937,5.62055 2.23145,2.823 3.87682,5.13273 3.65638,5.13273 -0.22045,0 -0.96101,-0.675 -1.6457,-1.5 z"
         id="path3402" />
    </g>
    <ellipse
       style="fill:#ff0000"
       id="path3424"
       cx="57.89769"
       cy="28.419744"
       rx="9.4741678"
       ry="11.677463" />
    <text
       xml:space="preserve"
       style="font-style:normal;font-weight:normal;font-size:28.03634453px;line-height:125%;font-family:sans-serif;letter-spacing:0px;word-spacing:0px;fill:#ff0000;fill-opacity:1;stroke:none;stroke-width:1px;stroke-linecap:butt;stroke-linejoin:miter;stroke-opacity:1;"
       x="159.563"
       y="26.480255"
       id="text3426"><tspan
         id="tspan3428"
         x="159.563"
         y="26.480255"
         style="-inkscape-font-specification:UnGraphic;font-family:UnGraphic;font-weight:normal;font-style:normal;font-stretch:normal;font-variant:normal">Corvo </tspan><tspan
         x="159.563"
         y="61.525684"
         id="tspan3430"
         style="-inkscape-font-specification:UnGraphic;font-family:UnGraphic;font-weight:normal;font-style:normal;font-stretch:normal;font-variant:normal">Project</tspan></text>
  </g>
</svg>
